<?xml version="1.0" encoding="UTF-8" standalone="no"?><!DOCTYPE svg PUBLIC "-//W3C//DTD SVG 1.1//EN" "http://www.w3.org/Graphics/SVG/1.1/DTD/svg11.dtd"><svg width="100%" height="100%" viewBox="0 0 320 512" version="1.1" xmlns="http://www.w3.org/2000/svg" xmlns:xlink="http://www.w3.org/1999/xlink" xml:space="preserve" xmlns:serif="http://www.serif.com/" style="fill-rule:evenodd;clip-rule:evenodd;stroke-linejoin:round;stroke-miterlimit:2;"><path d="M272,0l-224,0c-26.5,0 -48,21.5 -48,48l0,416c0,26.5 21.5,48 48,48l224,0c26.5,0 48,-21.5 48,-48l0,-416c0,-26.5 -21.5,-48 -48,-48Zm-112,480c-17.7,0 -32,-14.3 -32,-32c0,-17.7 14.3,-32 32,-32c17.7,0 32,14.3 32,32c0,17.7 -14.3,32 -32,32Zm112,-108c0,6.6 -5.4,12 -12,12l-200,0c-6.6,0 -12,-5.4 -12,-12l0,-312c0,-6.6 5.4,-12 12,-12l200,0c6.6,0 12,5.4 12,12l0,312Z" style="fill-rule:nonzero;"/><path d="M71.399,193.871l75.944,0l-0,-75.944l-75.944,0l-0,75.944Zm25.314,-50.629l25.315,0l0,25.315l-25.315,-0l0,-25.315Zm75.944,-25.315l0,75.944l75.944,0l0,-75.944l-75.944,0Zm50.63,50.63l-25.315,-0l-0,-25.315l25.315,0l-0,25.315Zm-151.888,126.573l75.944,0l-0,-75.944l-75.944,0l-0,75.944Zm25.314,-50.629l25.315,-0l0,25.314l-25.315,0l0,-25.314Zm139.231,-25.315l12.657,0l0,50.629l-37.972,0l0,-12.657l-12.657,0l-0,37.972l-25.315,0l0,-75.944l37.972,0l0,12.657l25.315,0l-0,-12.657Zm-0,63.287l12.657,-0l0,12.657l-12.657,0l-0,-12.657Zm-25.315,-0l12.658,-0l-0,12.657l-12.658,0l0,-12.657Z" style="fill-rule:nonzero;"/></svg>