<?xml version="1.0" encoding="UTF-8" standalone="no"?><!DOCTYPE svg PUBLIC "-//W3C//DTD SVG 1.1//EN" "http://www.w3.org/Graphics/SVG/1.1/DTD/svg11.dtd"><svg width="100%" height="100%" viewBox="0 0 480 512" version="1.1" xmlns="http://www.w3.org/2000/svg" xmlns:xlink="http://www.w3.org/1999/xlink" xml:space="preserve" xmlns:serif="http://www.serif.com/" style="fill-rule:evenodd;clip-rule:evenodd;stroke-linecap:square;stroke-miterlimit:2;"><g><path d="M477.675,186.162l-168.2,-167.8c-3.1,-3.1 -8.2,-3.1 -11.3,0l-34,33.9c-3.1,3.1 -3.1,8.2 0,11.3l11.2,11.1l-242.4,241.9c-38.8,38.7 -45.1,102 -9.4,143.5c20.6,24 49.5,36 78.4,35.9c26.4,0 52.8,-10 72.9,-30.1l246.3,-245.7l11.2,11.1c3.1,3.1 8.2,3.1 11.3,0l34,-33.9c3.1,-3 3.1,-8.1 0,-11.2Zm-237.7,147.9l-79,-78l148,-147.7l78.5,78.3l-147.5,147.4Z" style="fill-rule:nonzero;"/><path d="M263.191,298.449l-66.202,-66.203l3.103,-3.103l66.202,66.202l-3.103,3.104Zm4.583,-4.678l-66.155,-66.155l1.576,-1.577l66.156,66.156l-1.577,1.576Zm4.68,-4.679l-66.156,-66.156l1.527,-1.527l66.156,66.156l-1.527,1.527Zm7.733,-7.734l-66.155,-66.155l1.527,-1.527l66.155,66.155l-1.527,1.527Zm6.207,-6.206l-66.156,-66.156l3.054,-3.054l66.156,66.156l-3.054,3.054Zm7.733,-7.734l-66.155,-66.155l1.527,-1.527l66.155,66.155l-1.527,1.527Zm3.104,-3.103l-66.156,-66.155l1.527,-1.527l66.156,66.155l-1.527,1.527Zm3.103,-3.103l-66.156,-66.156l1.527,-1.527l66.156,66.156l-1.527,1.527Zm6.157,-6.157l-66.155,-66.156l3.103,-3.103l66.155,66.155l-3.103,3.104Zm7.734,-7.734l-66.156,-66.156l3.103,-3.103l66.156,66.156l-3.103,3.103Zm6.206,-6.206l-66.156,-66.156l3.104,-3.103l66.155,66.155l-3.103,3.104Zm6.207,-6.207l-66.156,-66.156l3.104,-3.103l66.155,66.156l-3.103,3.103Zm4.63,-4.63l-66.156,-66.156l3.104,-3.103l66.155,66.156l-3.103,3.103Zm7.783,-7.783l-66.156,-66.156l4.63,-4.63l66.156,66.156l-4.63,4.63Zm6.157,-6.157l-66.156,-66.156l1.577,-1.576l66.155,66.156l-1.576,1.576Zm3.15,-3.056l-66.202,-66.203l3.103,-3.103l66.202,66.202l-3.103,3.104Z" style="fill-rule:nonzero;stroke:#000;stroke-width:1px;"/></g></svg>